<svg width="192" height="31" viewBox="0 0 192 31" fill="none" xmlns="http://www.w3.org/2000/svg">
<path fill-rule="evenodd" clip-rule="evenodd" d="M32.3419 17.9743C33.5872 18.3895 35.1254 18.341 36.8387 18.0001C38.5604 17.6576 40.5125 17.0085 42.6154 16.1673C46.1636 14.748 50.1976 12.7583 54.3508 10.7097C55.1164 10.332 55.8862 9.95235 56.6577 9.57388C61.6282 7.13552 66.6787 4.74343 71.2604 3.20846C75.8641 1.6661 79.886 1.02848 82.8476 1.9762C85.8844 2.94799 89.3884 5.21323 93.2051 8.11667C95.7467 10.0502 98.3972 12.2427 101.118 14.4934L101.118 14.4935L101.118 14.4938C102.479 15.6191 103.857 16.7589 105.247 17.8881C109.407 21.2656 113.666 24.5364 117.834 26.9633C121.996 29.3865 126.119 31 130 31C137.575 31 150.513 28.1058 161.501 25.2337C167.008 23.7946 172.044 22.3556 175.704 21.2764C176.912 20.9202 177.97 20.6032 178.846 20.3382C180.031 22.5194 182.343 24 185 24C188.866 24 192 20.866 192 17C192 13.134 188.866 9.99998 185 9.99998C181.134 9.99998 178 13.134 178 17C178 17.8504 178.152 18.6654 178.429 19.4194C177.581 19.6758 176.569 19.9788 175.421 20.3173C171.768 21.3944 166.742 22.8304 161.249 24.2662C150.237 27.1442 137.425 30 130 30C126.381 30 122.441 28.4885 118.337 26.0991C114.24 23.7135 110.031 20.4844 105.878 17.1118C104.504 15.9961 103.134 14.8633 101.778 13.7413L101.777 13.741L101.777 13.7409C99.0464 11.4819 96.368 9.26638 93.8105 7.32079C89.9865 4.41174 86.3655 2.05198 83.1524 1.02377C79.864 -0.0285067 75.5734 0.708864 70.9427 2.26026C66.29 3.81904 61.1843 6.23945 56.2173 8.67609C55.4414 9.05671 54.669 9.43764 53.9023 9.81583L53.8995 9.81719L53.8994 9.81724C49.7444 11.8666 45.7526 13.8354 42.244 15.2389C40.1671 16.0696 38.2793 16.6939 36.6436 17.0194C34.9995 17.3465 33.6627 17.3605 32.6581 17.0256C29.4394 15.9527 26.6278 14.501 23.9769 13.1323L23.9769 13.1323C22.9544 12.6044 21.9559 12.0888 20.9671 11.6121C17.4503 9.91648 14.0686 8.72393 10.3952 9.51108C6.80669 10.2801 4.23662 11.82 2.56081 13.1735C1.72336 13.8499 1.10923 14.4797 0.70222 14.9437C0.498667 15.1758 0.346737 15.3665 0.244412 15.5012C0.193243 15.5686 0.154458 15.622 0.127803 15.6595C0.114475 15.6782 0.104178 15.693 0.0968802 15.7036L0.088178 15.7164L0.085506 15.7203L0.0845884 15.7217L0.0842341 15.7222C0.0840859 15.7224 0.0839493 15.7226 0.499975 16C0.916 16.2773 0.915886 16.2775 0.915784 16.2777L0.916173 16.2771L0.920708 16.2705C0.92519 16.2639 0.932593 16.2533 0.942947 16.2387C0.963656 16.2096 0.996159 16.1648 1.04069 16.1062C1.12978 15.9889 1.26691 15.8164 1.45398 15.6031C1.82823 15.1765 2.40159 14.5876 3.18915 13.9515C4.76333 12.68 7.19326 11.2199 10.6047 10.4889C13.9314 9.77604 17.0497 10.8335 20.5328 12.5129C21.476 12.9676 22.4471 13.469 23.4532 13.9885C26.1251 15.368 29.044 16.875 32.3419 17.9743Z" fill="#F3C9C4"/>
</svg>
