<svg width="190" height="45" viewBox="0 0 190 45" fill="none" xmlns="http://www.w3.org/2000/svg">
<path fill-rule="evenodd" clip-rule="evenodd" d="M183 14C186.866 14 190 10.866 190 7C190 3.13401 186.866 0 183 0C179.134 0 176 3.13401 176 7C176 8.87128 176.734 10.5711 177.93 11.8269C176.81 12.7624 175.616 13.7418 174.375 14.7346C171.101 17.3542 167.505 20.0622 164.078 22.3001C160.641 24.5445 157.412 26.2908 154.863 27.0192C152.35 27.7371 148.601 27.579 144.183 26.9222C139.785 26.2684 134.804 25.1344 129.866 23.9584C128.984 23.7484 128.103 23.537 127.228 23.3268L127.227 23.3266C123.209 22.3621 119.297 21.4231 115.86 20.7595C113.766 20.3551 111.837 20.0506 110.158 19.9049C108.487 19.7598 107.03 19.7689 105.896 20.011C103.62 20.4965 101.384 22.1984 99.174 24.3885C97.3511 26.1946 95.4922 28.3889 93.5993 30.6236L93.5992 30.6237L93.5986 30.6244C93.1863 31.1111 92.7725 31.5997 92.357 32.0866C90.0223 34.8226 87.6299 37.5146 85.1384 39.6053C82.6444 41.6981 80.0972 43.1483 77.4594 43.4646C76.1932 43.6165 74.5308 43.2768 72.5234 42.5031C70.5275 41.7338 68.2446 40.5572 65.7584 39.0961C60.7852 36.1736 55.0565 32.1482 49.2668 28.065L48.81 27.7429C43.1795 23.7715 37.5104 19.773 32.4788 16.742C29.8943 15.1851 27.466 13.8761 25.2877 12.955C23.1176 12.0375 21.1547 11.487 19.5126 11.487C16.2631 11.487 13.4482 12.9801 11.0753 15.1574C8.70497 17.3323 6.74552 20.2157 5.1891 23.0719C3.63068 25.9318 2.46388 28.7875 1.68707 30.9258C1.29839 31.9957 1.00667 32.8878 0.81185 33.5135C0.714428 33.8263 0.6412 34.0727 0.592162 34.2414C0.567642 34.3258 0.549166 34.3908 0.536734 34.435L0.522619 34.4855L0.51896 34.4988L0.51798 34.5023L0.517702 34.5034C0.517623 34.5037 0.517566 34.5039 0.99998 34.6353L1.4824 34.7667L1.48255 34.7662L1.48326 34.7636L1.48638 34.7523L1.49938 34.7057C1.51106 34.6642 1.52874 34.602 1.55243 34.5205C1.59981 34.3575 1.67121 34.1172 1.76663 33.8108C1.95749 33.1979 2.2443 32.3206 2.62697 31.2672C3.39288 29.159 4.54017 26.3526 6.06719 23.5504C7.59621 20.7445 9.49357 17.9659 11.7514 15.8942C14.0066 13.825 16.5913 12.487 19.5126 12.487C20.9561 12.487 22.7728 12.9774 24.8982 13.8761C27.0154 14.7713 29.3984 16.0538 31.9628 17.5986C36.9628 20.6106 42.6064 24.5911 48.2503 28.5718L48.6905 28.8822C54.4711 32.9591 60.2357 37.0105 65.2517 39.9582C67.76 41.4323 70.0957 42.6391 72.1638 43.4362C74.2206 44.229 76.0679 44.6387 77.5785 44.4575C80.4946 44.1078 83.2219 42.519 85.7812 40.3713C88.3431 38.2216 90.783 35.4717 93.1177 32.7357C93.5393 32.2416 93.9572 31.7483 94.3719 31.2588L94.3734 31.257L94.3735 31.2569C96.2655 29.0236 98.089 26.8711 99.8778 25.0989C102.069 22.9281 104.13 21.4104 106.104 20.989C107.095 20.7777 108.435 20.7591 110.072 20.9012C111.702 21.0426 113.593 21.3401 115.671 21.7413C119.083 22.4003 122.967 23.3326 126.985 24.2969L126.985 24.2969L126.988 24.2977C127.865 24.5082 128.748 24.7202 129.634 24.9312C134.571 26.1069 139.59 27.2505 144.036 27.9114C148.462 28.5693 152.4 28.7629 155.137 27.9808C157.838 27.2092 161.171 25.393 164.625 23.1374C168.089 20.8753 171.712 18.1458 175 15.5154C176.286 14.4866 177.521 13.4723 178.677 12.5061C179.867 13.4419 181.368 14 183 14Z" fill="#BCFFDB"/>
</svg>
