<svg width="261" height="244" viewBox="0 0 261 244" fill="none" xmlns="http://www.w3.org/2000/svg">
<g filter="url(#filter0_d_176_3)">
<rect x="77" y="164" width="105" height="43" rx="8" fill="#8F9792"/>
</g>
<g filter="url(#filter1_d_176_3)">
<rect x="65" y="168" width="131" height="43" rx="8" fill="#77787C"/>
</g>
<g filter="url(#filter2_d_176_3)">
<rect x="56" y="173" width="150" height="43" rx="8" fill="#4F5053"/>
</g>
<g filter="url(#filter3_d_176_3)">
<rect x="49" y="179" width="164" height="43" rx="8" fill="#313234"/>
</g>
<path d="M186.479 207.365C182.686 215.448 173.113 218.899 165.098 215.074C157.083 211.248 153.661 201.595 157.454 193.513C161.247 185.43 170.82 181.979 178.835 185.804C186.85 189.63 190.273 199.283 186.479 207.365ZM162.837 196.082C160.451 201.166 162.604 207.239 167.646 209.645C172.688 212.052 178.71 209.881 181.096 204.796C183.483 199.712 181.33 193.639 176.288 191.233C171.245 188.826 165.224 190.997 162.837 196.082Z" fill="url(#paint0_linear_176_3)"/>
<path d="M169.102 199.262L167.506 203H166.654L168.262 199.358H166.21V198.638H169.102V199.262ZM169.605 200.756C169.605 200.064 169.729 199.522 169.977 199.13C170.229 198.738 170.645 198.542 171.225 198.542C171.805 198.542 172.219 198.738 172.467 199.13C172.719 199.522 172.845 200.064 172.845 200.756C172.845 201.452 172.719 201.998 172.467 202.394C172.219 202.79 171.805 202.988 171.225 202.988C170.645 202.988 170.229 202.79 169.977 202.394C169.729 201.998 169.605 201.452 169.605 200.756ZM172.017 200.756C172.017 200.46 171.997 200.212 171.957 200.012C171.921 199.808 171.845 199.642 171.729 199.514C171.617 199.386 171.449 199.322 171.225 199.322C171.001 199.322 170.831 199.386 170.715 199.514C170.603 199.642 170.527 199.808 170.487 200.012C170.451 200.212 170.433 200.46 170.433 200.756C170.433 201.06 170.451 201.316 170.487 201.524C170.523 201.728 170.599 201.894 170.715 202.022C170.831 202.146 171.001 202.208 171.225 202.208C171.449 202.208 171.619 202.146 171.735 202.022C171.851 201.894 171.927 201.728 171.963 201.524C171.999 201.316 172.017 201.06 172.017 200.756ZM173.388 199.7C173.388 199.396 173.476 199.158 173.652 198.986C173.832 198.814 174.062 198.728 174.342 198.728C174.622 198.728 174.85 198.814 175.026 198.986C175.206 199.158 175.296 199.396 175.296 199.7C175.296 200.008 175.206 200.248 175.026 200.42C174.85 200.592 174.622 200.678 174.342 200.678C174.062 200.678 173.832 200.592 173.652 200.42C173.476 200.248 173.388 200.008 173.388 199.7ZM177.24 198.8L174.882 203H174.066L176.418 198.8H177.24ZM174.336 199.232C174.116 199.232 174.006 199.388 174.006 199.7C174.006 200.016 174.116 200.174 174.336 200.174C174.444 200.174 174.528 200.136 174.588 200.06C174.648 199.98 174.678 199.86 174.678 199.7C174.678 199.388 174.564 199.232 174.336 199.232ZM176.022 202.094C176.022 201.786 176.11 201.548 176.286 201.38C176.466 201.208 176.696 201.122 176.976 201.122C177.256 201.122 177.482 201.208 177.654 201.38C177.83 201.548 177.918 201.786 177.918 202.094C177.918 202.402 177.83 202.642 177.654 202.814C177.482 202.986 177.256 203.072 176.976 203.072C176.692 203.072 176.462 202.986 176.286 202.814C176.11 202.642 176.022 202.402 176.022 202.094ZM176.97 201.626C176.742 201.626 176.628 201.782 176.628 202.094C176.628 202.41 176.742 202.568 176.97 202.568C177.194 202.568 177.306 202.41 177.306 202.094C177.306 201.782 177.194 201.626 176.97 201.626Z" fill="#F5F5F5"/>
<path d="M1 67.5C1 67.5 4.88584 67.5291 8.5 68.5C17.4482 70.9039 22 54.5051 28.139 54.5051C34.2779 54.5051 39.5 63.2514 48.1982 63.2514C56.8964 63.2514 79 13.0268 87.1367 9.22969C95.2733 5.43259 100.392 29.708 107.196 31.8674C114 34.0268 117.5 22.0268 122.535 23.121C127.571 24.2152 121.035 73.0268 130.5 73.0268C139.965 73.0268 133.829 48.9906 141.415 45.7587C149 42.5268 149 62.5017 155 62.5016C161 62.5016 168.166 0.526796 178.583 2.0268C189 3.5268 196 58.0158 206.5 45.7587C217 33.5016 214.189 77.5268 224.5 73.0268C234.811 68.5268 228.849 38.8645 260 31.8674" stroke="#BCFFDB" stroke-width="3"/>
<path d="M9 68.5268C5.38584 67.5559 1 67 1 67V126L260 123V31.8674C228.849 38.8645 234.811 68.5268 224.5 73.0268C214.189 77.5268 217 33.5016 206.5 45.7587C196 58.0158 189 3.5268 178.583 2.0268C168.166 0.526796 161 62.5016 155 62.5016C149 62.5017 149 42.5268 141.415 45.7587C133.829 48.9906 139.965 73.0268 130.5 73.0268C121.035 73.0268 127.571 24.2152 122.535 23.121C117.5 22.0268 114 34.0268 107.196 31.8674C100.392 29.708 95.2733 5.43259 87.1367 9.22969C79 13.0268 56.8964 63.2514 48.1982 63.2514C39.5 63.2514 34.2779 54.5051 28.139 54.5051C22 54.5051 17.9482 70.9307 9 68.5268Z" fill="url(#paint1_linear_176_3)"/>
<path d="M31.28 114.03V119.18C31.28 119.753 31.1033 120.213 30.75 120.56C30.3967 120.9 29.93 121.07 29.35 121.07C28.7633 121.07 28.2933 120.897 27.94 120.55C27.5867 120.197 27.41 119.717 27.41 119.11H28.32C28.3267 119.45 28.4133 119.727 28.58 119.94C28.7533 120.153 29.01 120.26 29.35 120.26C29.69 120.26 29.9433 120.16 30.11 119.96C30.2767 119.753 30.36 119.493 30.36 119.18V114.03H31.28ZM32.7327 118.24C32.7327 117.68 32.8461 117.19 33.0727 116.77C33.2994 116.343 33.6094 116.013 34.0027 115.78C34.4027 115.547 34.8461 115.43 35.3327 115.43C35.8127 115.43 36.2294 115.533 36.5827 115.74C36.9361 115.947 37.1994 116.207 37.3727 116.52V115.52H38.2927V121H37.3727V119.98C37.1927 120.3 36.9227 120.567 36.5627 120.78C36.2094 120.987 35.7961 121.09 35.3227 121.09C34.8361 121.09 34.3961 120.97 34.0027 120.73C33.6094 120.49 33.2994 120.153 33.0727 119.72C32.8461 119.287 32.7327 118.793 32.7327 118.24ZM37.3727 118.25C37.3727 117.837 37.2894 117.477 37.1227 117.17C36.9561 116.863 36.7294 116.63 36.4427 116.47C36.1627 116.303 35.8527 116.22 35.5127 116.22C35.1727 116.22 34.8627 116.3 34.5827 116.46C34.3027 116.62 34.0794 116.853 33.9127 117.16C33.7461 117.467 33.6627 117.827 33.6627 118.24C33.6627 118.66 33.7461 119.027 33.9127 119.34C34.0794 119.647 34.3027 119.883 34.5827 120.05C34.8627 120.21 35.1727 120.29 35.5127 120.29C35.8527 120.29 36.1627 120.21 36.4427 120.05C36.7294 119.883 36.9561 119.647 37.1227 119.34C37.2894 119.027 37.3727 118.663 37.3727 118.25ZM42.5005 115.42C43.1672 115.42 43.7072 115.623 44.1205 116.03C44.5339 116.43 44.7405 117.01 44.7405 117.77V121H43.8405V117.9C43.8405 117.353 43.7039 116.937 43.4305 116.65C43.1572 116.357 42.7839 116.21 42.3105 116.21C41.8305 116.21 41.4472 116.36 41.1605 116.66C40.8805 116.96 40.7405 117.397 40.7405 117.97V121H39.8305V115.52H40.7405V116.3C40.9205 116.02 41.1639 115.803 41.4705 115.65C41.7839 115.497 42.1272 115.42 42.5005 115.42Z" fill="#F5F5F5"/>
<path d="M74.71 114.03V114.77H71.68V117.12H74.14V117.86H71.68V121H70.77V114.03H74.71ZM80.8091 118.05C80.8091 118.223 80.7991 118.407 80.7791 118.6H76.3991C76.4324 119.14 76.6157 119.563 76.9491 119.87C77.2891 120.17 77.6991 120.32 78.1791 120.32C78.5724 120.32 78.8991 120.23 79.1591 120.05C79.4257 119.863 79.6124 119.617 79.7191 119.31H80.6991C80.5524 119.837 80.2591 120.267 79.8191 120.6C79.3791 120.927 78.8324 121.09 78.1791 121.09C77.6591 121.09 77.1924 120.973 76.7791 120.74C76.3724 120.507 76.0524 120.177 75.8191 119.75C75.5857 119.317 75.4691 118.817 75.4691 118.25C75.4691 117.683 75.5824 117.187 75.8091 116.76C76.0357 116.333 76.3524 116.007 76.7591 115.78C77.1724 115.547 77.6457 115.43 78.1791 115.43C78.6991 115.43 79.1591 115.543 79.5591 115.77C79.9591 115.997 80.2657 116.31 80.4791 116.71C80.6991 117.103 80.8091 117.55 80.8091 118.05ZM79.8691 117.86C79.8691 117.513 79.7924 117.217 79.6391 116.97C79.4857 116.717 79.2757 116.527 79.0091 116.4C78.7491 116.267 78.4591 116.2 78.1391 116.2C77.6791 116.2 77.2857 116.347 76.9591 116.64C76.6391 116.933 76.4557 117.34 76.4091 117.86H79.8691ZM82.9202 116.54C83.1069 116.213 83.3802 115.947 83.7402 115.74C84.1002 115.533 84.5102 115.43 84.9702 115.43C85.4636 115.43 85.9069 115.547 86.3002 115.78C86.6936 116.013 87.0036 116.343 87.2302 116.77C87.4569 117.19 87.5702 117.68 87.5702 118.24C87.5702 118.793 87.4569 119.287 87.2302 119.72C87.0036 120.153 86.6902 120.49 86.2902 120.73C85.8969 120.97 85.4569 121.09 84.9702 121.09C84.4969 121.09 84.0802 120.987 83.7202 120.78C83.3669 120.573 83.1002 120.31 82.9202 119.99V121H82.0102V113.6H82.9202V116.54ZM86.6402 118.24C86.6402 117.827 86.5569 117.467 86.3902 117.16C86.2236 116.853 85.9969 116.62 85.7102 116.46C85.4302 116.3 85.1202 116.22 84.7802 116.22C84.4469 116.22 84.1369 116.303 83.8502 116.47C83.5702 116.63 83.3436 116.867 83.1702 117.18C83.0036 117.487 82.9202 117.843 82.9202 118.25C82.9202 118.663 83.0036 119.027 83.1702 119.34C83.3436 119.647 83.5702 119.883 83.8502 120.05C84.1369 120.21 84.4469 120.29 84.7802 120.29C85.1202 120.29 85.4302 120.21 85.7102 120.05C85.9969 119.883 86.2236 119.647 86.3902 119.34C86.5569 119.027 86.6402 118.66 86.6402 118.24Z" fill="#F5F5F5"/>
<path d="M119.84 114.08V121H118.93V115.84L116.63 121H115.99L113.68 115.83V121H112.77V114.08H113.75L116.31 119.8L118.87 114.08H119.84ZM121.043 118.24C121.043 117.68 121.157 117.19 121.383 116.77C121.61 116.343 121.92 116.013 122.313 115.78C122.713 115.547 123.157 115.43 123.643 115.43C124.123 115.43 124.54 115.533 124.893 115.74C125.247 115.947 125.51 116.207 125.683 116.52V115.52H126.603V121H125.683V119.98C125.503 120.3 125.233 120.567 124.873 120.78C124.52 120.987 124.107 121.09 123.633 121.09C123.147 121.09 122.707 120.97 122.313 120.73C121.92 120.49 121.61 120.153 121.383 119.72C121.157 119.287 121.043 118.793 121.043 118.24ZM125.683 118.25C125.683 117.837 125.6 117.477 125.433 117.17C125.267 116.863 125.04 116.63 124.753 116.47C124.473 116.303 124.163 116.22 123.823 116.22C123.483 116.22 123.173 116.3 122.893 116.46C122.613 116.62 122.39 116.853 122.223 117.16C122.057 117.467 121.973 117.827 121.973 118.24C121.973 118.66 122.057 119.027 122.223 119.34C122.39 119.647 122.613 119.883 122.893 120.05C123.173 120.21 123.483 120.29 123.823 120.29C124.163 120.29 124.473 120.21 124.753 120.05C125.04 119.883 125.267 119.647 125.433 119.34C125.6 119.027 125.683 118.663 125.683 118.25ZM129.051 116.41C129.211 116.097 129.438 115.853 129.731 115.68C130.031 115.507 130.394 115.42 130.821 115.42V116.36H130.581C129.561 116.36 129.051 116.913 129.051 118.02V121H128.141V115.52H129.051V116.41Z" fill="#F5F5F5"/>
<rect x="156" y="108" width="31" height="19" rx="8" fill="#F3C9C4"/>
<path d="M166.99 119.76H164.37L163.95 121H162.16L164.7 113.98H166.68L169.22 121H167.41L166.99 119.76ZM166.55 118.44L165.68 115.87L164.82 118.44H166.55ZM171.703 116.21C171.87 115.95 172.1 115.74 172.393 115.58C172.686 115.42 173.03 115.34 173.423 115.34C173.883 115.34 174.3 115.457 174.673 115.69C175.046 115.923 175.34 116.257 175.553 116.69C175.773 117.123 175.883 117.627 175.883 118.2C175.883 118.773 175.773 119.28 175.553 119.72C175.34 120.153 175.046 120.49 174.673 120.73C174.3 120.963 173.883 121.08 173.423 121.08C173.036 121.08 172.693 121 172.393 120.84C172.1 120.68 171.87 120.473 171.703 120.22V123.66H169.993V115.42H171.703V116.21ZM174.143 118.2C174.143 117.773 174.023 117.44 173.783 117.2C173.55 116.953 173.26 116.83 172.913 116.83C172.573 116.83 172.283 116.953 172.043 117.2C171.81 117.447 171.693 117.783 171.693 118.21C171.693 118.637 171.81 118.973 172.043 119.22C172.283 119.467 172.573 119.59 172.913 119.59C173.253 119.59 173.543 119.467 173.783 119.22C174.023 118.967 174.143 118.627 174.143 118.2ZM178.49 116.35C178.69 116.043 178.94 115.803 179.24 115.63C179.54 115.45 179.873 115.36 180.24 115.36V117.17H179.77C179.343 117.17 179.023 117.263 178.81 117.45C178.597 117.63 178.49 117.95 178.49 118.41V121H176.78V115.42H178.49V116.35Z" fill="#29292A"/>
<path d="M218.84 114.08V121H217.93V115.84L215.63 121H214.99L212.68 115.83V121H211.77V114.08H212.75L215.31 119.8L217.87 114.08H218.84ZM220.043 118.24C220.043 117.68 220.157 117.19 220.383 116.77C220.61 116.343 220.92 116.013 221.313 115.78C221.713 115.547 222.157 115.43 222.643 115.43C223.123 115.43 223.54 115.533 223.893 115.74C224.247 115.947 224.51 116.207 224.683 116.52V115.52H225.603V121H224.683V119.98C224.503 120.3 224.233 120.567 223.873 120.78C223.52 120.987 223.107 121.09 222.633 121.09C222.147 121.09 221.707 120.97 221.313 120.73C220.92 120.49 220.61 120.153 220.383 119.72C220.157 119.287 220.043 118.793 220.043 118.24ZM224.683 118.25C224.683 117.837 224.6 117.477 224.433 117.17C224.267 116.863 224.04 116.63 223.753 116.47C223.473 116.303 223.163 116.22 222.823 116.22C222.483 116.22 222.173 116.3 221.893 116.46C221.613 116.62 221.39 116.853 221.223 117.16C221.057 117.467 220.973 117.827 220.973 118.24C220.973 118.66 221.057 119.027 221.223 119.34C221.39 119.647 221.613 119.883 221.893 120.05C222.173 120.21 222.483 120.29 222.823 120.29C223.163 120.29 223.473 120.21 223.753 120.05C224.04 119.883 224.267 119.647 224.433 119.34C224.6 119.027 224.683 118.663 224.683 118.25ZM231.861 115.52L228.561 123.58H227.621L228.701 120.94L226.491 115.52H227.501L229.221 119.96L230.921 115.52H231.861Z" fill="#F5F5F5"/>
<line x1="172.467" y1="108.003" x2="172.467" y2="14" stroke="#F3C9C4"/>
<circle cx="172" cy="11" r="1.5" fill="#313234" stroke="#313234"/>
<defs>
<filter id="filter0_d_176_3" x="59" y="150" width="141" height="79" filterUnits="userSpaceOnUse" color-interpolation-filters="sRGB">
<feFlood flood-opacity="0" result="BackgroundImageFix"/>
<feColorMatrix in="SourceAlpha" type="matrix" values="0 0 0 0 0 0 0 0 0 0 0 0 0 0 0 0 0 0 127 0" result="hardAlpha"/>
<feOffset dy="4"/>
<feGaussianBlur stdDeviation="9"/>
<feComposite in2="hardAlpha" operator="out"/>
<feColorMatrix type="matrix" values="0 0 0 0 0 0 0 0 0 0 0 0 0 0 0 0 0 0 0.15 0"/>
<feBlend mode="normal" in2="BackgroundImageFix" result="effect1_dropShadow_176_3"/>
<feBlend mode="normal" in="SourceGraphic" in2="effect1_dropShadow_176_3" result="shape"/>
</filter>
<filter id="filter1_d_176_3" x="47" y="154" width="167" height="79" filterUnits="userSpaceOnUse" color-interpolation-filters="sRGB">
<feFlood flood-opacity="0" result="BackgroundImageFix"/>
<feColorMatrix in="SourceAlpha" type="matrix" values="0 0 0 0 0 0 0 0 0 0 0 0 0 0 0 0 0 0 127 0" result="hardAlpha"/>
<feOffset dy="4"/>
<feGaussianBlur stdDeviation="9"/>
<feComposite in2="hardAlpha" operator="out"/>
<feColorMatrix type="matrix" values="0 0 0 0 0 0 0 0 0 0 0 0 0 0 0 0 0 0 0.15 0"/>
<feBlend mode="normal" in2="BackgroundImageFix" result="effect1_dropShadow_176_3"/>
<feBlend mode="normal" in="SourceGraphic" in2="effect1_dropShadow_176_3" result="shape"/>
</filter>
<filter id="filter2_d_176_3" x="38" y="159" width="186" height="79" filterUnits="userSpaceOnUse" color-interpolation-filters="sRGB">
<feFlood flood-opacity="0" result="BackgroundImageFix"/>
<feColorMatrix in="SourceAlpha" type="matrix" values="0 0 0 0 0 0 0 0 0 0 0 0 0 0 0 0 0 0 127 0" result="hardAlpha"/>
<feOffset dy="4"/>
<feGaussianBlur stdDeviation="9"/>
<feComposite in2="hardAlpha" operator="out"/>
<feColorMatrix type="matrix" values="0 0 0 0 0 0 0 0 0 0 0 0 0 0 0 0 0 0 0.15 0"/>
<feBlend mode="normal" in2="BackgroundImageFix" result="effect1_dropShadow_176_3"/>
<feBlend mode="normal" in="SourceGraphic" in2="effect1_dropShadow_176_3" result="shape"/>
</filter>
<filter id="filter3_d_176_3" x="31" y="165" width="200" height="79" filterUnits="userSpaceOnUse" color-interpolation-filters="sRGB">
<feFlood flood-opacity="0" result="BackgroundImageFix"/>
<feColorMatrix in="SourceAlpha" type="matrix" values="0 0 0 0 0 0 0 0 0 0 0 0 0 0 0 0 0 0 127 0" result="hardAlpha"/>
<feOffset dy="4"/>
<feGaussianBlur stdDeviation="9"/>
<feComposite in2="hardAlpha" operator="out"/>
<feColorMatrix type="matrix" values="0 0 0 0 0 0 0 0 0 0 0 0 0 0 0 0 0 0 0.15 0"/>
<feBlend mode="normal" in2="BackgroundImageFix" result="effect1_dropShadow_176_3"/>
<feBlend mode="normal" in="SourceGraphic" in2="effect1_dropShadow_176_3" result="shape"/>
</filter>
<linearGradient id="paint0_linear_176_3" x1="178.835" y1="185.804" x2="164.909" y2="214.984" gradientUnits="userSpaceOnUse">
<stop stop-color="#F3C9C4"/>
<stop offset="1" stop-color="white" stop-opacity="0"/>
</linearGradient>
<linearGradient id="paint1_linear_176_3" x1="130.5" y1="2" x2="130.5" y2="126" gradientUnits="userSpaceOnUse">
<stop stop-color="#BCFFDB"/>
<stop offset="1" stop-opacity="0"/>
</linearGradient>
</defs>
</svg>
