<svg width="201" height="38" viewBox="0 0 201 38" fill="none" xmlns="http://www.w3.org/2000/svg">
<path fill-rule="evenodd" clip-rule="evenodd" d="M38.7284 13.7929C41.0726 15.3097 43.783 14.8509 46.5527 13.5774C49.158 12.3796 51.9495 10.3997 54.7537 8.41076L55.2891 8.03117C58.2972 5.90042 61.3155 3.80915 64.2253 2.58397C67.1291 1.36133 69.832 1.04005 72.2681 2.31607C73.4566 2.93862 74.4141 4.06509 75.2228 5.60607C76.0311 7.14657 76.6694 9.06033 77.2404 11.2005C77.7027 12.9333 78.1156 14.7934 78.5399 16.7045C78.6395 17.1531 78.7397 17.6045 78.8413 18.0577C79.3742 20.4346 79.9444 22.8545 80.6605 25.1354C82.0861 29.6758 84.1235 33.7825 87.7297 35.8997C91.3659 38.0344 96.4355 38.0601 103.703 34.8301C115.044 29.7897 121.334 26.8562 125.245 25.0322L125.246 25.0321C126.302 24.5395 127.185 24.1278 127.946 23.7774C131.505 22.1409 132.402 21.85 136.129 20.8563C137.97 20.3653 142.064 19.6816 147.205 18.9304C152.333 18.1811 158.471 17.369 164.376 16.6192C170.28 15.8694 175.951 15.182 180.145 14.6821C182.242 14.4322 183.971 14.2291 185.174 14.0885C185.776 14.0182 186.247 13.9636 186.567 13.9265L186.932 13.8843L187.026 13.8735L187.049 13.8708L187.055 13.8701L187.057 13.8699C187.057 13.8699 187.057 13.8699 187 13.3731C186.943 12.8764 186.943 12.8764 186.942 12.8765L186.941 12.8767L186.935 12.8773L186.911 12.8801L186.818 12.8908L186.452 12.9331C186.132 12.9702 185.66 13.0249 185.058 13.0953C183.854 13.2359 182.125 13.4391 180.027 13.6892C175.831 14.1893 170.158 14.8769 164.25 15.6271C158.342 16.3773 152.198 17.1903 147.061 17.9409C141.936 18.6897 137.78 19.3811 135.871 19.8901C132.098 20.8964 131.145 21.2055 127.529 22.8689C126.764 23.2207 125.879 23.6334 124.821 24.1269C120.908 25.9514 114.628 28.8802 103.297 33.9163C96.1646 37.0862 91.4718 36.937 88.236 35.0373C84.9704 33.1201 83.0266 29.333 81.6146 24.8359C80.912 22.598 80.3494 20.2133 79.8171 17.839C79.7167 17.3912 79.6173 16.9436 79.5183 16.4974C79.0937 14.5846 78.675 12.6983 78.2066 10.9427C77.6291 8.77816 76.9682 6.78019 76.1082 5.1414C75.2485 3.50309 74.1686 2.18268 72.7321 1.43024C69.9181 -0.0437397 66.871 0.38498 63.8373 1.66234C60.8096 2.93716 57.7029 5.09589 54.7111 7.21514L54.2048 7.57402C51.3708 9.58361 48.6518 11.5117 46.135 12.6689C43.4672 13.8954 41.1776 14.1866 39.2717 12.9534C37.1315 11.5686 35.5923 11.0397 34.4103 11.1979C33.1673 11.3643 32.4833 12.2589 31.9935 13.2059C31.7849 13.6091 31.5971 14.0508 31.4145 14.4801L31.4144 14.4801C31.3824 14.5555 31.3505 14.6304 31.3187 14.7047C31.1014 15.2125 30.8834 15.7006 30.6235 16.1435C30.1102 17.0183 29.462 17.6709 28.402 17.8829C27.327 18.0979 26.2086 17.7589 25.0073 17.0382C23.8049 16.3167 22.5888 15.2553 21.3345 14.1265C21.2095 14.014 21.0841 13.9008 20.9584 13.7873L20.9584 13.7873C19.8378 12.7758 18.6889 11.7387 17.5368 10.9323C16.2586 10.0375 14.9044 9.37314 13.5001 9.37315C10.91 9.37316 7.71718 10.2737 5.20989 11.1512C3.94809 11.5929 2.84463 12.0343 2.05645 12.3653C1.6622 12.5309 1.3464 12.669 1.12864 12.766C1.01975 12.8145 0.935348 12.8528 0.87787 12.879L0.812144 12.9092L0.794995 12.9171L0.790448 12.9192L0.789194 12.9198L0.788824 12.92C0.78871 12.92 0.788625 12.9201 1.00007 13.3731L1.21148 13.8263L1.21162 13.8262L1.21242 13.8258L1.21605 13.8241L1.23132 13.8171L1.29316 13.7887C1.34799 13.7637 1.4296 13.7267 1.53555 13.6795C1.74748 13.5851 2.05669 13.4498 2.44368 13.2873C3.21801 12.9621 4.30204 12.5285 5.54024 12.0951C8.03296 11.2226 11.0901 10.3732 13.5001 10.3731C14.5957 10.3731 15.7416 10.8963 16.9633 11.7515C18.0613 12.5201 19.1624 13.5137 20.2921 14.5331C20.4163 14.6451 20.5407 14.7574 20.6656 14.8698C21.9113 15.9909 23.1953 17.1171 24.4928 17.8956C25.7916 18.6749 27.1731 19.1484 28.5981 18.8634C30.0381 18.5754 30.8899 17.6655 31.486 16.6496C31.7807 16.1473 32.0198 15.608 32.238 15.0982C32.2718 15.0195 32.3049 14.9416 32.3376 14.8647L32.3376 14.8647C32.521 14.4338 32.6919 14.0322 32.8817 13.6654C33.3293 12.7999 33.8015 12.2883 34.543 12.189C35.3454 12.0816 36.6186 12.4277 38.7284 13.7929ZM194 19C197.866 19 201 15.866 201 12C201 8.13401 197.866 5.00001 194 5.00001C190.134 5.00001 187 8.13401 187 12C187 15.866 190.134 19 194 19Z" fill="#FFF3CA"/>
</svg>
