<svg width="447" height="202" viewBox="0 0 447 202" fill="none" xmlns="http://www.w3.org/2000/svg">
<rect x="36" y="146" width="21" height="32" fill="#FFF3CA"/>
<path d="M41.28 191.03V196.18C41.28 196.753 41.1033 197.213 40.75 197.56C40.3967 197.9 39.93 198.07 39.35 198.07C38.7633 198.07 38.2933 197.897 37.94 197.55C37.5867 197.197 37.41 196.717 37.41 196.11H38.32C38.3267 196.45 38.4133 196.727 38.58 196.94C38.7533 197.153 39.01 197.26 39.35 197.26C39.69 197.26 39.9433 197.16 40.11 196.96C40.2767 196.753 40.36 196.493 40.36 196.18V191.03H41.28ZM42.7327 195.24C42.7327 194.68 42.8461 194.19 43.0727 193.77C43.2994 193.343 43.6094 193.013 44.0027 192.78C44.4027 192.547 44.8461 192.43 45.3327 192.43C45.8127 192.43 46.2294 192.533 46.5827 192.74C46.9361 192.947 47.1994 193.207 47.3727 193.52V192.52H48.2927V198H47.3727V196.98C47.1927 197.3 46.9227 197.567 46.5627 197.78C46.2094 197.987 45.7961 198.09 45.3227 198.09C44.8361 198.09 44.3961 197.97 44.0027 197.73C43.6094 197.49 43.2994 197.153 43.0727 196.72C42.8461 196.287 42.7327 195.793 42.7327 195.24ZM47.3727 195.25C47.3727 194.837 47.2894 194.477 47.1227 194.17C46.9561 193.863 46.7294 193.63 46.4427 193.47C46.1627 193.303 45.8527 193.22 45.5127 193.22C45.1727 193.22 44.8627 193.3 44.5827 193.46C44.3027 193.62 44.0794 193.853 43.9127 194.16C43.7461 194.467 43.6627 194.827 43.6627 195.24C43.6627 195.66 43.7461 196.027 43.9127 196.34C44.0794 196.647 44.3027 196.883 44.5827 197.05C44.8627 197.21 45.1727 197.29 45.5127 197.29C45.8527 197.29 46.1627 197.21 46.4427 197.05C46.7294 196.883 46.9561 196.647 47.1227 196.34C47.2894 196.027 47.3727 195.663 47.3727 195.25ZM52.5005 192.42C53.1672 192.42 53.7072 192.623 54.1205 193.03C54.5339 193.43 54.7405 194.01 54.7405 194.77V198H53.8405V194.9C53.8405 194.353 53.7039 193.937 53.4305 193.65C53.1572 193.357 52.7839 193.21 52.3105 193.21C51.8305 193.21 51.4472 193.36 51.1605 193.66C50.8805 193.96 50.7405 194.397 50.7405 194.97V198H49.8305V192.52H50.7405V193.3C50.9205 193.02 51.1639 192.803 51.4705 192.65C51.7839 192.497 52.1272 192.42 52.5005 192.42Z" fill="#29292A"/>
<rect x="71" y="88" width="21" height="90" fill="#FFF3CA"/>
<path d="M77.21 191.03V191.77H74.18V194.12H76.64V194.86H74.18V198H73.27V191.03H77.21ZM83.3091 195.05C83.3091 195.223 83.2991 195.407 83.2791 195.6H78.8991C78.9324 196.14 79.1157 196.563 79.4491 196.87C79.7891 197.17 80.1991 197.32 80.6791 197.32C81.0724 197.32 81.3991 197.23 81.6591 197.05C81.9257 196.863 82.1124 196.617 82.2191 196.31H83.1991C83.0524 196.837 82.7591 197.267 82.3191 197.6C81.8791 197.927 81.3324 198.09 80.6791 198.09C80.1591 198.09 79.6924 197.973 79.2791 197.74C78.8724 197.507 78.5524 197.177 78.3191 196.75C78.0857 196.317 77.9691 195.817 77.9691 195.25C77.9691 194.683 78.0824 194.187 78.3091 193.76C78.5357 193.333 78.8524 193.007 79.2591 192.78C79.6724 192.547 80.1457 192.43 80.6791 192.43C81.1991 192.43 81.6591 192.543 82.0591 192.77C82.4591 192.997 82.7657 193.31 82.9791 193.71C83.1991 194.103 83.3091 194.55 83.3091 195.05ZM82.3691 194.86C82.3691 194.513 82.2924 194.217 82.1391 193.97C81.9857 193.717 81.7757 193.527 81.5091 193.4C81.2491 193.267 80.9591 193.2 80.6391 193.2C80.1791 193.2 79.7857 193.347 79.4591 193.64C79.1391 193.933 78.9557 194.34 78.9091 194.86H82.3691ZM85.4202 193.54C85.6069 193.213 85.8802 192.947 86.2402 192.74C86.6002 192.533 87.0102 192.43 87.4702 192.43C87.9636 192.43 88.4069 192.547 88.8002 192.78C89.1936 193.013 89.5036 193.343 89.7302 193.77C89.9569 194.19 90.0702 194.68 90.0702 195.24C90.0702 195.793 89.9569 196.287 89.7302 196.72C89.5036 197.153 89.1902 197.49 88.7902 197.73C88.3969 197.97 87.9569 198.09 87.4702 198.09C86.9969 198.09 86.5802 197.987 86.2202 197.78C85.8669 197.573 85.6002 197.31 85.4202 196.99V198H84.5102V190.6H85.4202V193.54ZM89.1402 195.24C89.1402 194.827 89.0569 194.467 88.8902 194.16C88.7236 193.853 88.4969 193.62 88.2102 193.46C87.9302 193.3 87.6202 193.22 87.2802 193.22C86.9469 193.22 86.6369 193.303 86.3502 193.47C86.0702 193.63 85.8436 193.867 85.6702 194.18C85.5036 194.487 85.4202 194.843 85.4202 195.25C85.4202 195.663 85.5036 196.027 85.6702 196.34C85.8436 196.647 86.0702 196.883 86.3502 197.05C86.6369 197.21 86.9469 197.29 87.2802 197.29C87.6202 197.29 87.9302 197.21 88.2102 197.05C88.4969 196.883 88.7236 196.647 88.8902 196.34C89.0569 196.027 89.1402 195.66 89.1402 195.24Z" fill="#29292A"/>
<rect x="106" y="115" width="21" height="63" fill="#FFF3CA"/>
<path d="M114.84 191.08V198H113.93V192.84L111.63 198H110.99L108.68 192.83V198H107.77V191.08H108.75L111.31 196.8L113.87 191.08H114.84ZM116.043 195.24C116.043 194.68 116.157 194.19 116.383 193.77C116.61 193.343 116.92 193.013 117.313 192.78C117.713 192.547 118.157 192.43 118.643 192.43C119.123 192.43 119.54 192.533 119.893 192.74C120.247 192.947 120.51 193.207 120.683 193.52V192.52H121.603V198H120.683V196.98C120.503 197.3 120.233 197.567 119.873 197.78C119.52 197.987 119.107 198.09 118.633 198.09C118.147 198.09 117.707 197.97 117.313 197.73C116.92 197.49 116.61 197.153 116.383 196.72C116.157 196.287 116.043 195.793 116.043 195.24ZM120.683 195.25C120.683 194.837 120.6 194.477 120.433 194.17C120.267 193.863 120.04 193.63 119.753 193.47C119.473 193.303 119.163 193.22 118.823 193.22C118.483 193.22 118.173 193.3 117.893 193.46C117.613 193.62 117.39 193.853 117.223 194.16C117.057 194.467 116.973 194.827 116.973 195.24C116.973 195.66 117.057 196.027 117.223 196.34C117.39 196.647 117.613 196.883 117.893 197.05C118.173 197.21 118.483 197.29 118.823 197.29C119.163 197.29 119.473 197.21 119.753 197.05C120.04 196.883 120.267 196.647 120.433 196.34C120.6 196.027 120.683 195.663 120.683 195.25ZM124.051 193.41C124.211 193.097 124.438 192.853 124.731 192.68C125.031 192.507 125.394 192.42 125.821 192.42V193.36H125.581C124.561 193.36 124.051 193.913 124.051 195.02V198H123.141V192.52H124.051V193.41Z" fill="#29292A"/>
<rect x="141" y="102" width="21" height="76" fill="#FFF3CA"/>
<path d="M147.39 196.45H144.35L143.79 198H142.83L145.35 191.07H146.4L148.91 198H147.95L147.39 196.45ZM147.13 195.71L145.87 192.19L144.61 195.71H147.13ZM150.918 193.53C151.098 193.217 151.365 192.957 151.718 192.75C152.078 192.537 152.495 192.43 152.968 192.43C153.455 192.43 153.895 192.547 154.288 192.78C154.688 193.013 155.002 193.343 155.228 193.77C155.455 194.19 155.568 194.68 155.568 195.24C155.568 195.793 155.455 196.287 155.228 196.72C155.002 197.153 154.688 197.49 154.288 197.73C153.895 197.97 153.455 198.09 152.968 198.09C152.502 198.09 152.088 197.987 151.728 197.78C151.375 197.567 151.105 197.303 150.918 196.99V200.6H150.008V192.52H150.918V193.53ZM154.638 195.24C154.638 194.827 154.555 194.467 154.388 194.16C154.222 193.853 153.995 193.62 153.708 193.46C153.428 193.3 153.118 193.22 152.778 193.22C152.445 193.22 152.135 193.303 151.848 193.47C151.568 193.63 151.342 193.867 151.168 194.18C151.002 194.487 150.918 194.843 150.918 195.25C150.918 195.663 151.002 196.027 151.168 196.34C151.342 196.647 151.568 196.883 151.848 197.05C152.135 197.21 152.445 197.29 152.778 197.29C153.118 197.29 153.428 197.21 153.708 197.05C153.995 196.883 154.222 196.647 154.388 196.34C154.555 196.027 154.638 195.66 154.638 195.24ZM157.676 193.41C157.836 193.097 158.063 192.853 158.356 192.68C158.656 192.507 159.019 192.42 159.446 192.42V193.36H159.206C158.186 193.36 157.676 193.913 157.676 195.02V198H156.766V192.52H157.676V193.41Z" fill="#29292A"/>
<rect x="176" y="78" width="21" height="100" fill="#FFF3CA"/>
<path d="M183.84 191.08V198H182.93V192.84L180.63 198H179.99L177.68 192.83V198H176.77V191.08H177.75L180.31 196.8L182.87 191.08H183.84ZM185.043 195.24C185.043 194.68 185.157 194.19 185.383 193.77C185.61 193.343 185.92 193.013 186.313 192.78C186.713 192.547 187.157 192.43 187.643 192.43C188.123 192.43 188.54 192.533 188.893 192.74C189.247 192.947 189.51 193.207 189.683 193.52V192.52H190.603V198H189.683V196.98C189.503 197.3 189.233 197.567 188.873 197.78C188.52 197.987 188.107 198.09 187.633 198.09C187.147 198.09 186.707 197.97 186.313 197.73C185.92 197.49 185.61 197.153 185.383 196.72C185.157 196.287 185.043 195.793 185.043 195.24ZM189.683 195.25C189.683 194.837 189.6 194.477 189.433 194.17C189.267 193.863 189.04 193.63 188.753 193.47C188.473 193.303 188.163 193.22 187.823 193.22C187.483 193.22 187.173 193.3 186.893 193.46C186.613 193.62 186.39 193.853 186.223 194.16C186.057 194.467 185.973 194.827 185.973 195.24C185.973 195.66 186.057 196.027 186.223 196.34C186.39 196.647 186.613 196.883 186.893 197.05C187.173 197.21 187.483 197.29 187.823 197.29C188.163 197.29 188.473 197.21 188.753 197.05C189.04 196.883 189.267 196.647 189.433 196.34C189.6 196.027 189.683 195.663 189.683 195.25ZM196.861 192.52L193.561 200.58H192.621L193.701 197.94L191.491 192.52H192.501L194.221 196.96L195.921 192.52H196.861Z" fill="#29292A"/>
<rect x="214" y="138" width="21" height="40" fill="#FFF3CA"/>
<path d="M216.28 191.03V196.18C216.28 196.753 216.103 197.213 215.75 197.56C215.397 197.9 214.93 198.07 214.35 198.07C213.763 198.07 213.293 197.897 212.94 197.55C212.587 197.197 212.41 196.717 212.41 196.11H213.32C213.327 196.45 213.413 196.727 213.58 196.94C213.753 197.153 214.01 197.26 214.35 197.26C214.69 197.26 214.943 197.16 215.11 196.96C215.277 196.753 215.36 196.493 215.36 196.18V191.03H216.28ZM222.933 192.52V198H222.023V197.19C221.849 197.47 221.606 197.69 221.293 197.85C220.986 198.003 220.646 198.08 220.273 198.08C219.846 198.08 219.463 197.993 219.123 197.82C218.783 197.64 218.513 197.373 218.313 197.02C218.119 196.667 218.023 196.237 218.023 195.73V192.52H218.923V195.61C218.923 196.15 219.059 196.567 219.333 196.86C219.606 197.147 219.979 197.29 220.453 197.29C220.939 197.29 221.323 197.14 221.603 196.84C221.883 196.54 222.023 196.103 222.023 195.53V192.52H222.933ZM227.139 192.42C227.806 192.42 228.346 192.623 228.759 193.03C229.173 193.43 229.379 194.01 229.379 194.77V198H228.479V194.9C228.479 194.353 228.343 193.937 228.069 193.65C227.796 193.357 227.423 193.21 226.949 193.21C226.469 193.21 226.086 193.36 225.799 193.66C225.519 193.96 225.379 194.397 225.379 194.97V198H224.469V192.52H225.379V193.3C225.559 193.02 225.803 192.803 226.109 192.65C226.423 192.497 226.766 192.42 227.139 192.42ZM235.866 195.05C235.866 195.223 235.856 195.407 235.836 195.6H231.456C231.489 196.14 231.672 196.563 232.006 196.87C232.346 197.17 232.756 197.32 233.236 197.32C233.629 197.32 233.956 197.23 234.216 197.05C234.482 196.863 234.669 196.617 234.776 196.31H235.756C235.609 196.837 235.316 197.267 234.876 197.6C234.436 197.927 233.889 198.09 233.236 198.09C232.716 198.09 232.249 197.973 231.836 197.74C231.429 197.507 231.109 197.177 230.876 196.75C230.642 196.317 230.526 195.817 230.526 195.25C230.526 194.683 230.639 194.187 230.866 193.76C231.092 193.333 231.409 193.007 231.816 192.78C232.229 192.547 232.702 192.43 233.236 192.43C233.756 192.43 234.216 192.543 234.616 192.77C235.016 192.997 235.322 193.31 235.536 193.71C235.756 194.103 235.866 194.55 235.866 195.05ZM234.926 194.86C234.926 194.513 234.849 194.217 234.696 193.97C234.542 193.717 234.332 193.527 234.066 193.4C233.806 193.267 233.516 193.2 233.196 193.2C232.736 193.2 232.342 193.347 232.016 193.64C231.696 193.933 231.512 194.34 231.466 194.86H234.926Z" fill="#29292A"/>
<path d="M251 40C251 34.4772 255.477 30 261 30H262C267.523 30 272 34.4772 272 40V178H251V40Z" fill="#8F9792"/>
<circle cx="261.5" cy="41.5" r="7.5" fill="#F3C9C4"/>
<path d="M255.28 191.03V196.18C255.28 196.753 255.103 197.213 254.75 197.56C254.397 197.9 253.93 198.07 253.35 198.07C252.763 198.07 252.293 197.897 251.94 197.55C251.587 197.197 251.41 196.717 251.41 196.11H252.32C252.327 196.45 252.413 196.727 252.58 196.94C252.753 197.153 253.01 197.26 253.35 197.26C253.69 197.26 253.943 197.16 254.11 196.96C254.277 196.753 254.36 196.493 254.36 196.18V191.03H255.28ZM261.933 192.52V198H261.023V197.19C260.849 197.47 260.606 197.69 260.293 197.85C259.986 198.003 259.646 198.08 259.273 198.08C258.846 198.08 258.463 197.993 258.123 197.82C257.783 197.64 257.513 197.373 257.313 197.02C257.119 196.667 257.023 196.237 257.023 195.73V192.52H257.923V195.61C257.923 196.15 258.059 196.567 258.333 196.86C258.606 197.147 258.979 197.29 259.453 197.29C259.939 197.29 260.323 197.14 260.603 196.84C260.883 196.54 261.023 196.103 261.023 195.53V192.52H261.933ZM264.379 190.6V198H263.469V190.6H264.379ZM270.65 192.52L267.35 200.58H266.41L267.49 197.94L265.28 192.52H266.29L268.01 196.96L269.71 192.52H270.65Z" fill="#29292A"/>
<rect x="286" y="102" width="21" height="76" fill="#FFF3CA"/>
<path d="M290.89 196.45H287.85L287.29 198H286.33L288.85 191.07H289.9L292.41 198H291.45L290.89 196.45ZM290.63 195.71L289.37 192.19L288.11 195.71H290.63ZM298.368 192.52V198H297.458V197.19C297.285 197.47 297.042 197.69 296.728 197.85C296.422 198.003 296.082 198.08 295.708 198.08C295.282 198.08 294.898 197.993 294.558 197.82C294.218 197.64 293.948 197.373 293.748 197.02C293.555 196.667 293.458 196.237 293.458 195.73V192.52H294.358V195.61C294.358 196.15 294.495 196.567 294.768 196.86C295.042 197.147 295.415 197.29 295.888 197.29C296.375 197.29 296.758 197.14 297.038 196.84C297.318 196.54 297.458 196.103 297.458 195.53V192.52H298.368ZM302.165 192.43C302.638 192.43 303.051 192.533 303.405 192.74C303.765 192.947 304.031 193.207 304.205 193.52V192.52H305.125V198.12C305.125 198.62 305.018 199.063 304.805 199.45C304.591 199.843 304.285 200.15 303.885 200.37C303.491 200.59 303.031 200.7 302.505 200.7C301.785 200.7 301.185 200.53 300.705 200.19C300.225 199.85 299.941 199.387 299.855 198.8H300.755C300.855 199.133 301.061 199.4 301.375 199.6C301.688 199.807 302.065 199.91 302.505 199.91C303.005 199.91 303.411 199.753 303.725 199.44C304.045 199.127 304.205 198.687 304.205 198.12V196.97C304.025 197.29 303.758 197.557 303.405 197.77C303.051 197.983 302.638 198.09 302.165 198.09C301.678 198.09 301.235 197.97 300.835 197.73C300.441 197.49 300.131 197.153 299.905 196.72C299.678 196.287 299.565 195.793 299.565 195.24C299.565 194.68 299.678 194.19 299.905 193.77C300.131 193.343 300.441 193.013 300.835 192.78C301.235 192.547 301.678 192.43 302.165 192.43ZM304.205 195.25C304.205 194.837 304.121 194.477 303.955 194.17C303.788 193.863 303.561 193.63 303.275 193.47C302.995 193.303 302.685 193.22 302.345 193.22C302.005 193.22 301.695 193.3 301.415 193.46C301.135 193.62 300.911 193.853 300.745 194.16C300.578 194.467 300.495 194.827 300.495 195.24C300.495 195.66 300.578 196.027 300.745 196.34C300.911 196.647 301.135 196.883 301.415 197.05C301.695 197.21 302.005 197.29 302.345 197.29C302.685 197.29 302.995 197.21 303.275 197.05C303.561 196.883 303.788 196.647 303.955 196.34C304.121 196.027 304.205 195.663 304.205 195.25Z" fill="#29292A"/>
<rect x="321" y="88" width="21" height="90" fill="#FFF3CA"/>
<path d="M324.98 198.07C324.52 198.07 324.107 197.99 323.74 197.83C323.38 197.663 323.097 197.437 322.89 197.15C322.683 196.857 322.577 196.52 322.57 196.14H323.54C323.573 196.467 323.707 196.743 323.94 196.97C324.18 197.19 324.527 197.3 324.98 197.3C325.413 197.3 325.753 197.193 326 196.98C326.253 196.76 326.38 196.48 326.38 196.14C326.38 195.873 326.307 195.657 326.16 195.49C326.013 195.323 325.83 195.197 325.61 195.11C325.39 195.023 325.093 194.93 324.72 194.83C324.26 194.71 323.89 194.59 323.61 194.47C323.337 194.35 323.1 194.163 322.9 193.91C322.707 193.65 322.61 193.303 322.61 192.87C322.61 192.49 322.707 192.153 322.9 191.86C323.093 191.567 323.363 191.34 323.71 191.18C324.063 191.02 324.467 190.94 324.92 190.94C325.573 190.94 326.107 191.103 326.52 191.43C326.94 191.757 327.177 192.19 327.23 192.73H326.23C326.197 192.463 326.057 192.23 325.81 192.03C325.563 191.823 325.237 191.72 324.83 191.72C324.45 191.72 324.14 191.82 323.9 192.02C323.66 192.213 323.54 192.487 323.54 192.84C323.54 193.093 323.61 193.3 323.75 193.46C323.897 193.62 324.073 193.743 324.28 193.83C324.493 193.91 324.79 194.003 325.17 194.11C325.63 194.237 326 194.363 326.28 194.49C326.56 194.61 326.8 194.8 327 195.06C327.2 195.313 327.3 195.66 327.3 196.1C327.3 196.44 327.21 196.76 327.03 197.06C326.85 197.36 326.583 197.603 326.23 197.79C325.877 197.977 325.46 198.07 324.98 198.07ZM333.639 195.05C333.639 195.223 333.629 195.407 333.609 195.6H329.229C329.262 196.14 329.446 196.563 329.779 196.87C330.119 197.17 330.529 197.32 331.009 197.32C331.402 197.32 331.729 197.23 331.989 197.05C332.256 196.863 332.442 196.617 332.549 196.31H333.529C333.382 196.837 333.089 197.267 332.649 197.6C332.209 197.927 331.662 198.09 331.009 198.09C330.489 198.09 330.022 197.973 329.609 197.74C329.202 197.507 328.882 197.177 328.649 196.75C328.416 196.317 328.299 195.817 328.299 195.25C328.299 194.683 328.412 194.187 328.639 193.76C328.866 193.333 329.182 193.007 329.589 192.78C330.002 192.547 330.476 192.43 331.009 192.43C331.529 192.43 331.989 192.543 332.389 192.77C332.789 192.997 333.096 193.31 333.309 193.71C333.529 194.103 333.639 194.55 333.639 195.05ZM332.699 194.86C332.699 194.513 332.622 194.217 332.469 193.97C332.316 193.717 332.106 193.527 331.839 193.4C331.579 193.267 331.289 193.2 330.969 193.2C330.509 193.2 330.116 193.347 329.789 193.64C329.469 193.933 329.286 194.34 329.239 194.86H332.699ZM335.75 193.53C335.93 193.217 336.197 192.957 336.55 192.75C336.91 192.537 337.327 192.43 337.8 192.43C338.287 192.43 338.727 192.547 339.12 192.78C339.52 193.013 339.834 193.343 340.06 193.77C340.287 194.19 340.4 194.68 340.4 195.24C340.4 195.793 340.287 196.287 340.06 196.72C339.834 197.153 339.52 197.49 339.12 197.73C338.727 197.97 338.287 198.09 337.8 198.09C337.334 198.09 336.92 197.987 336.56 197.78C336.207 197.567 335.937 197.303 335.75 196.99V200.6H334.84V192.52H335.75V193.53ZM339.47 195.24C339.47 194.827 339.387 194.467 339.22 194.16C339.054 193.853 338.827 193.62 338.54 193.46C338.26 193.3 337.95 193.22 337.61 193.22C337.277 193.22 336.967 193.303 336.68 193.47C336.4 193.63 336.174 193.867 336 194.18C335.834 194.487 335.75 194.843 335.75 195.25C335.75 195.663 335.834 196.027 336 196.34C336.174 196.647 336.4 196.883 336.68 197.05C336.967 197.21 337.277 197.29 337.61 197.29C337.95 197.29 338.26 197.21 338.54 197.05C338.827 196.883 339.054 196.647 339.22 196.34C339.387 196.027 339.47 195.66 339.47 195.24Z" fill="#29292A"/>
<rect x="356" y="97" width="21" height="81" fill="#FFF3CA"/>
<path d="M361.43 198.07C360.783 198.07 360.193 197.92 359.66 197.62C359.127 197.313 358.703 196.89 358.39 196.35C358.083 195.803 357.93 195.19 357.93 194.51C357.93 193.83 358.083 193.22 358.39 192.68C358.703 192.133 359.127 191.71 359.66 191.41C360.193 191.103 360.783 190.95 361.43 190.95C362.083 190.95 362.677 191.103 363.21 191.41C363.743 191.71 364.163 192.13 364.47 192.67C364.777 193.21 364.93 193.823 364.93 194.51C364.93 195.197 364.777 195.81 364.47 196.35C364.163 196.89 363.743 197.313 363.21 197.62C362.677 197.92 362.083 198.07 361.43 198.07ZM361.43 197.28C361.917 197.28 362.353 197.167 362.74 196.94C363.133 196.713 363.44 196.39 363.66 195.97C363.887 195.55 364 195.063 364 194.51C364 193.95 363.887 193.463 363.66 193.05C363.44 192.63 363.137 192.307 362.75 192.08C362.363 191.853 361.923 191.74 361.43 191.74C360.937 191.74 360.497 191.853 360.11 192.08C359.723 192.307 359.417 192.63 359.19 193.05C358.97 193.463 358.86 193.95 358.86 194.51C358.86 195.063 358.97 195.55 359.19 195.97C359.417 196.39 359.723 196.713 360.11 196.94C360.503 197.167 360.943 197.28 361.43 197.28ZM365.791 195.25C365.791 194.683 365.905 194.19 366.131 193.77C366.358 193.343 366.671 193.013 367.071 192.78C367.478 192.547 367.941 192.43 368.461 192.43C369.135 192.43 369.688 192.593 370.121 192.92C370.561 193.247 370.851 193.7 370.991 194.28H370.011C369.918 193.947 369.735 193.683 369.461 193.49C369.195 193.297 368.861 193.2 368.461 193.2C367.941 193.2 367.521 193.38 367.201 193.74C366.881 194.093 366.721 194.597 366.721 195.25C366.721 195.91 366.881 196.42 367.201 196.78C367.521 197.14 367.941 197.32 368.461 197.32C368.861 197.32 369.195 197.227 369.461 197.04C369.728 196.853 369.911 196.587 370.011 196.24H370.991C370.845 196.8 370.551 197.25 370.111 197.59C369.671 197.923 369.121 198.09 368.461 198.09C367.941 198.09 367.478 197.973 367.071 197.74C366.671 197.507 366.358 197.177 366.131 196.75C365.905 196.323 365.791 195.823 365.791 195.25ZM373.316 193.27V196.5C373.316 196.767 373.372 196.957 373.486 197.07C373.599 197.177 373.796 197.23 374.076 197.23H374.746V198H373.926C373.419 198 373.039 197.883 372.786 197.65C372.532 197.417 372.406 197.033 372.406 196.5V193.27H371.696V192.52H372.406V191.14H373.316V192.52H374.746V193.27H373.316Z" fill="#29292A"/>
<rect x="391" y="78" width="21" height="100" fill="#FFF3CA"/>
<path d="M398.25 198H397.34L393.68 192.45V198H392.77V191.02H393.68L397.34 196.56V191.02H398.25V198ZM402.191 198.09C401.678 198.09 401.211 197.973 400.791 197.74C400.378 197.507 400.051 197.177 399.811 196.75C399.578 196.317 399.461 195.817 399.461 195.25C399.461 194.69 399.581 194.197 399.821 193.77C400.068 193.337 400.401 193.007 400.821 192.78C401.241 192.547 401.711 192.43 402.231 192.43C402.751 192.43 403.221 192.547 403.641 192.78C404.061 193.007 404.391 193.333 404.631 193.76C404.878 194.187 405.001 194.683 405.001 195.25C405.001 195.817 404.875 196.317 404.621 196.75C404.375 197.177 404.038 197.507 403.611 197.74C403.185 197.973 402.711 198.09 402.191 198.09ZM402.191 197.29C402.518 197.29 402.825 197.213 403.111 197.06C403.398 196.907 403.628 196.677 403.801 196.37C403.981 196.063 404.071 195.69 404.071 195.25C404.071 194.81 403.985 194.437 403.811 194.13C403.638 193.823 403.411 193.597 403.131 193.45C402.851 193.297 402.548 193.22 402.221 193.22C401.888 193.22 401.581 193.297 401.301 193.45C401.028 193.597 400.808 193.823 400.641 194.13C400.475 194.437 400.391 194.81 400.391 195.25C400.391 195.697 400.471 196.073 400.631 196.38C400.798 196.687 401.018 196.917 401.291 197.07C401.565 197.217 401.865 197.29 402.191 197.29ZM408.238 197.16L409.938 192.52H410.908L408.758 198H407.698L405.548 192.52H406.528L408.238 197.16Z" fill="#29292A"/>
<rect x="426" y="102" width="21" height="76" fill="#FFF3CA"/>
<path d="M429.94 191.03C430.7 191.03 431.357 191.173 431.91 191.46C432.47 191.74 432.897 192.143 433.19 192.67C433.49 193.197 433.64 193.817 433.64 194.53C433.64 195.243 433.49 195.863 433.19 196.39C432.897 196.91 432.47 197.31 431.91 197.59C431.357 197.863 430.7 198 429.94 198H427.77V191.03H429.94ZM429.94 197.25C430.84 197.25 431.527 197.013 432 196.54C432.473 196.06 432.71 195.39 432.71 194.53C432.71 193.663 432.47 192.987 431.99 192.5C431.517 192.013 430.833 191.77 429.94 191.77H428.68V197.25H429.94ZM439.84 195.05C439.84 195.223 439.83 195.407 439.81 195.6H435.43C435.464 196.14 435.647 196.563 435.98 196.87C436.32 197.17 436.73 197.32 437.21 197.32C437.604 197.32 437.93 197.23 438.19 197.05C438.457 196.863 438.644 196.617 438.75 196.31H439.73C439.584 196.837 439.29 197.267 438.85 197.6C438.41 197.927 437.864 198.09 437.21 198.09C436.69 198.09 436.224 197.973 435.81 197.74C435.404 197.507 435.084 197.177 434.85 196.75C434.617 196.317 434.5 195.817 434.5 195.25C434.5 194.683 434.614 194.187 434.84 193.76C435.067 193.333 435.384 193.007 435.79 192.78C436.204 192.547 436.677 192.43 437.21 192.43C437.73 192.43 438.19 192.543 438.59 192.77C438.99 192.997 439.297 193.31 439.51 193.71C439.73 194.103 439.84 194.55 439.84 195.05ZM438.9 194.86C438.9 194.513 438.824 194.217 438.67 193.97C438.517 193.717 438.307 193.527 438.04 193.4C437.78 193.267 437.49 193.2 437.17 193.2C436.71 193.2 436.317 193.347 435.99 193.64C435.67 193.933 435.487 194.34 435.44 194.86H438.9ZM440.701 195.25C440.701 194.683 440.815 194.19 441.041 193.77C441.268 193.343 441.581 193.013 441.981 192.78C442.388 192.547 442.851 192.43 443.371 192.43C444.045 192.43 444.598 192.593 445.031 192.92C445.471 193.247 445.761 193.7 445.901 194.28H444.921C444.828 193.947 444.645 193.683 444.371 193.49C444.105 193.297 443.771 193.2 443.371 193.2C442.851 193.2 442.431 193.38 442.111 193.74C441.791 194.093 441.631 194.597 441.631 195.25C441.631 195.91 441.791 196.42 442.111 196.78C442.431 197.14 442.851 197.32 443.371 197.32C443.771 197.32 444.105 197.227 444.371 197.04C444.638 196.853 444.821 196.587 444.921 196.24H445.901C445.755 196.8 445.461 197.25 445.021 197.59C444.581 197.923 444.031 198.09 443.371 198.09C442.851 198.09 442.388 197.973 441.981 197.74C441.581 197.507 441.268 197.177 441.041 196.75C440.815 196.323 440.701 195.823 440.701 195.25Z" fill="#29292A"/>
<path d="M4.65 5.49C4.50333 4.75 4.04667 4.38 3.28 4.38C2.68667 4.38 2.24333 4.61 1.95 5.07C1.65667 5.52333 1.51333 6.27333 1.52 7.32C1.67333 6.97333 1.92667 6.70333 2.28 6.51C2.64 6.31 3.04 6.21 3.48 6.21C4.16667 6.21 4.71333 6.42333 5.12 6.85C5.53333 7.27667 5.74 7.86667 5.74 8.62C5.74 9.07333 5.65 9.48 5.47 9.84C5.29667 10.2 5.03 10.4867 4.67 10.7C4.31667 10.9133 3.88667 11.02 3.38 11.02C2.69333 11.02 2.15667 10.8667 1.77 10.56C1.38333 10.2533 1.11333 9.83 0.96 9.29C0.806667 8.75 0.73 8.08333 0.73 7.29C0.73 4.84333 1.58333 3.62 3.29 3.62C3.94333 3.62 4.45667 3.79667 4.83 4.15C5.20333 4.50333 5.42333 4.95 5.49 5.49H4.65ZM3.29 6.98C3.00333 6.98 2.73333 7.04 2.48 7.16C2.22667 7.27333 2.02 7.45 1.86 7.69C1.70667 7.92333 1.63 8.21 1.63 8.55C1.63 9.05667 1.77667 9.47 2.07 9.79C2.36333 10.1033 2.78333 10.26 3.33 10.26C3.79667 10.26 4.16667 10.1167 4.44 9.83C4.72 9.53667 4.86 9.14333 4.86 8.65C4.86 8.13 4.72667 7.72333 4.46 7.43C4.19333 7.13 3.80333 6.98 3.29 6.98ZM6.96766 7.31C6.96766 6.16333 7.15432 5.27 7.52766 4.63C7.90099 3.98333 8.55432 3.66 9.48766 3.66C10.4143 3.66 11.0643 3.98333 11.4377 4.63C11.811 5.27 11.9977 6.16333 11.9977 7.31C11.9977 8.47667 11.811 9.38333 11.4377 10.03C11.0643 10.6767 10.4143 11 9.48766 11C8.55432 11 7.90099 10.6767 7.52766 10.03C7.15432 9.38333 6.96766 8.47667 6.96766 7.31ZM11.0977 7.31C11.0977 6.73 11.0577 6.24 10.9777 5.84C10.9043 5.43333 10.7477 5.10667 10.5077 4.86C10.2743 4.61333 9.93432 4.49 9.48766 4.49C9.03432 4.49 8.68766 4.61333 8.44766 4.86C8.21432 5.10667 8.05766 5.43333 7.97766 5.84C7.90432 6.24 7.86766 6.73 7.86766 7.31C7.86766 7.91 7.90432 8.41333 7.97766 8.82C8.05766 9.22667 8.21432 9.55333 8.44766 9.8C8.68766 10.0467 9.03432 10.17 9.48766 10.17C9.93432 10.17 10.2743 10.0467 10.5077 9.8C10.7477 9.55333 10.9043 9.22667 10.9777 8.82C11.0577 8.41333 11.0977 7.91 11.0977 7.31ZM13.047 5.4C13.047 4.94667 13.1836 4.58667 13.457 4.32C13.7303 4.04667 14.0803 3.91 14.507 3.91C14.9336 3.91 15.2836 4.04667 15.557 4.32C15.8303 4.58667 15.967 4.94667 15.967 5.4C15.967 5.86 15.8303 6.22667 15.557 6.5C15.2836 6.76667 14.9336 6.9 14.507 6.9C14.0803 6.9 13.7303 6.76667 13.457 6.5C13.1836 6.22667 13.047 5.86 13.047 5.4ZM18.887 4.02L14.837 11H13.937L17.987 4.02H18.887ZM14.507 4.47C14.2803 4.47 14.1003 4.55 13.967 4.71C13.8403 4.86333 13.777 5.09333 13.777 5.4C13.777 5.70667 13.8403 5.94 13.967 6.1C14.1003 6.26 14.2803 6.34 14.507 6.34C14.7336 6.34 14.9136 6.26 15.047 6.1C15.1803 5.93333 15.247 5.7 15.247 5.4C15.247 5.09333 15.1803 4.86333 15.047 4.71C14.9136 4.55 14.7336 4.47 14.507 4.47ZM16.877 9.62C16.877 9.16 17.0136 8.79667 17.287 8.53C17.5603 8.25667 17.9103 8.12 18.337 8.12C18.7636 8.12 19.1103 8.25667 19.377 8.53C19.6503 8.79667 19.787 9.16 19.787 9.62C19.787 10.0733 19.6503 10.4367 19.377 10.71C19.1103 10.9833 18.7636 11.12 18.337 11.12C17.9103 11.12 17.5603 10.9867 17.287 10.72C17.0136 10.4467 16.877 10.08 16.877 9.62ZM18.327 8.69C18.1003 8.69 17.9203 8.77 17.787 8.93C17.6536 9.08333 17.587 9.31333 17.587 9.62C17.587 9.92 17.6536 10.15 17.787 10.31C17.9203 10.4633 18.1003 10.54 18.327 10.54C18.5536 10.54 18.7336 10.4633 18.867 10.31C19.0003 10.15 19.067 9.92 19.067 9.62C19.067 9.31333 19.0003 9.08333 18.867 8.93C18.7336 8.77 18.5536 8.69 18.327 8.69Z" fill="#29292A"/>
<path d="M5.23 32.56H1.72V34.84C1.87333 34.6267 2.1 34.4533 2.4 34.32C2.7 34.18 3.02333 34.11 3.37 34.11C3.92333 34.11 4.37333 34.2267 4.72 34.46C5.06667 34.6867 5.31333 34.9833 5.46 35.35C5.61333 35.71 5.69 36.0933 5.69 36.5C5.69 36.98 5.6 37.41 5.42 37.79C5.24 38.17 4.96333 38.47 4.59 38.69C4.22333 38.91 3.76667 39.02 3.22 39.02C2.52 39.02 1.95333 38.84 1.52 38.48C1.08667 38.12 0.823333 37.64 0.73 37.04H1.62C1.70667 37.42 1.89 37.7167 2.17 37.93C2.45 38.1433 2.80333 38.25 3.23 38.25C3.75667 38.25 4.15333 38.0933 4.42 37.78C4.68667 37.46 4.82 37.04 4.82 36.52C4.82 36 4.68667 35.6 4.42 35.32C4.15333 35.0333 3.76 34.89 3.24 34.89C2.88667 34.89 2.57667 34.9767 2.31 35.15C2.05 35.3167 1.86 35.5467 1.74 35.84H0.88V31.76H5.23V32.56ZM6.8993 35.31C6.8993 34.1633 7.08596 33.27 7.4593 32.63C7.83263 31.9833 8.48596 31.66 9.4193 31.66C10.346 31.66 10.996 31.9833 11.3693 32.63C11.7426 33.27 11.9293 34.1633 11.9293 35.31C11.9293 36.4767 11.7426 37.3833 11.3693 38.03C10.996 38.6767 10.346 39 9.4193 39C8.48596 39 7.83263 38.6767 7.4593 38.03C7.08596 37.3833 6.8993 36.4767 6.8993 35.31ZM11.0293 35.31C11.0293 34.73 10.9893 34.24 10.9093 33.84C10.836 33.4333 10.6793 33.1067 10.4393 32.86C10.206 32.6133 9.86596 32.49 9.4193 32.49C8.96596 32.49 8.6193 32.6133 8.3793 32.86C8.14596 33.1067 7.9893 33.4333 7.9093 33.84C7.83596 34.24 7.7993 34.73 7.7993 35.31C7.7993 35.91 7.83596 36.4133 7.9093 36.82C7.9893 37.2267 8.14596 37.5533 8.3793 37.8C8.6193 38.0467 8.96596 38.17 9.4193 38.17C9.86596 38.17 10.206 38.0467 10.4393 37.8C10.6793 37.5533 10.836 37.2267 10.9093 36.82C10.9893 36.4133 11.0293 35.91 11.0293 35.31ZM12.9786 33.4C12.9786 32.9467 13.1153 32.5867 13.3886 32.32C13.6619 32.0467 14.0119 31.91 14.4386 31.91C14.8653 31.91 15.2153 32.0467 15.4886 32.32C15.7619 32.5867 15.8986 32.9467 15.8986 33.4C15.8986 33.86 15.7619 34.2267 15.4886 34.5C15.2153 34.7667 14.8653 34.9 14.4386 34.9C14.0119 34.9 13.6619 34.7667 13.3886 34.5C13.1153 34.2267 12.9786 33.86 12.9786 33.4ZM18.8186 32.02L14.7686 39H13.8686L17.9186 32.02H18.8186ZM14.4386 32.47C14.2119 32.47 14.0319 32.55 13.8986 32.71C13.7719 32.8633 13.7086 33.0933 13.7086 33.4C13.7086 33.7067 13.7719 33.94 13.8986 34.1C14.0319 34.26 14.2119 34.34 14.4386 34.34C14.6653 34.34 14.8453 34.26 14.9786 34.1C15.1119 33.9333 15.1786 33.7 15.1786 33.4C15.1786 33.0933 15.1119 32.8633 14.9786 32.71C14.8453 32.55 14.6653 32.47 14.4386 32.47ZM16.8086 37.62C16.8086 37.16 16.9453 36.7967 17.2186 36.53C17.4919 36.2567 17.8419 36.12 18.2686 36.12C18.6953 36.12 19.0419 36.2567 19.3086 36.53C19.5819 36.7967 19.7186 37.16 19.7186 37.62C19.7186 38.0733 19.5819 38.4367 19.3086 38.71C19.0419 38.9833 18.6953 39.12 18.2686 39.12C17.8419 39.12 17.4919 38.9867 17.2186 38.72C16.9453 38.4467 16.8086 38.08 16.8086 37.62ZM18.2586 36.69C18.0319 36.69 17.8519 36.77 17.7186 36.93C17.5853 37.0833 17.5186 37.3133 17.5186 37.62C17.5186 37.92 17.5853 38.15 17.7186 38.31C17.8519 38.4633 18.0319 38.54 18.2586 38.54C18.4853 38.54 18.6653 38.4633 18.7986 38.31C18.9319 38.15 18.9986 37.92 18.9986 37.62C18.9986 37.3133 18.9319 37.0833 18.7986 36.93C18.6653 36.77 18.4853 36.69 18.2586 36.69Z" fill="#29292A"/>
<path d="M0.4 65.39V64.7L3.91 59.84H5V64.6H6V65.39H5V67H4.1V65.39H0.4ZM4.14 60.79L1.45 64.6H4.14V60.79ZM6.90906 63.31C6.90906 62.1633 7.09573 61.27 7.46906 60.63C7.8424 59.9833 8.49573 59.66 9.42906 59.66C10.3557 59.66 11.0057 59.9833 11.3791 60.63C11.7524 61.27 11.9391 62.1633 11.9391 63.31C11.9391 64.4767 11.7524 65.3833 11.3791 66.03C11.0057 66.6767 10.3557 67 9.42906 67C8.49573 67 7.8424 66.6767 7.46906 66.03C7.09573 65.3833 6.90906 64.4767 6.90906 63.31ZM11.0391 63.31C11.0391 62.73 10.9991 62.24 10.9191 61.84C10.8457 61.4333 10.6891 61.1067 10.4491 60.86C10.2157 60.6133 9.87573 60.49 9.42906 60.49C8.97573 60.49 8.62906 60.6133 8.38906 60.86C8.15573 61.1067 7.99906 61.4333 7.91906 61.84C7.84573 62.24 7.80906 62.73 7.80906 63.31C7.80906 63.91 7.84573 64.4133 7.91906 64.82C7.99906 65.2267 8.15573 65.5533 8.38906 65.8C8.62906 66.0467 8.97573 66.17 9.42906 66.17C9.87573 66.17 10.2157 66.0467 10.4491 65.8C10.6891 65.5533 10.8457 65.2267 10.9191 64.82C10.9991 64.4133 11.0391 63.91 11.0391 63.31ZM12.9884 61.4C12.9884 60.9467 13.125 60.5867 13.3984 60.32C13.6717 60.0467 14.0217 59.91 14.4484 59.91C14.875 59.91 15.225 60.0467 15.4984 60.32C15.7717 60.5867 15.9084 60.9467 15.9084 61.4C15.9084 61.86 15.7717 62.2267 15.4984 62.5C15.225 62.7667 14.875 62.9 14.4484 62.9C14.0217 62.9 13.6717 62.7667 13.3984 62.5C13.125 62.2267 12.9884 61.86 12.9884 61.4ZM18.8284 60.02L14.7784 67H13.8784L17.9284 60.02H18.8284ZM14.4484 60.47C14.2217 60.47 14.0417 60.55 13.9084 60.71C13.7817 60.8633 13.7184 61.0933 13.7184 61.4C13.7184 61.7067 13.7817 61.94 13.9084 62.1C14.0417 62.26 14.2217 62.34 14.4484 62.34C14.675 62.34 14.855 62.26 14.9884 62.1C15.1217 61.9333 15.1884 61.7 15.1884 61.4C15.1884 61.0933 15.1217 60.8633 14.9884 60.71C14.855 60.55 14.675 60.47 14.4484 60.47ZM16.8184 65.62C16.8184 65.16 16.955 64.7967 17.2284 64.53C17.5017 64.2567 17.8517 64.12 18.2784 64.12C18.705 64.12 19.0517 64.2567 19.3184 64.53C19.5917 64.7967 19.7284 65.16 19.7284 65.62C19.7284 66.0733 19.5917 66.4367 19.3184 66.71C19.0517 66.9833 18.705 67.12 18.2784 67.12C17.8517 67.12 17.5017 66.9867 17.2284 66.72C16.955 66.4467 16.8184 66.08 16.8184 65.62ZM18.2684 64.69C18.0417 64.69 17.8617 64.77 17.7284 64.93C17.595 65.0833 17.5284 65.3133 17.5284 65.62C17.5284 65.92 17.595 66.15 17.7284 66.31C17.8617 66.4633 18.0417 66.54 18.2684 66.54C18.495 66.54 18.675 66.4633 18.8084 66.31C18.9417 66.15 19.0084 65.92 19.0084 65.62C19.0084 65.3133 18.9417 65.0833 18.8084 64.93C18.675 64.77 18.495 64.69 18.2684 64.69Z" fill="#29292A"/>
<path d="M0.6 89.59C0.646667 88.9767 0.883333 88.4967 1.31 88.15C1.73667 87.8033 2.29 87.63 2.97 87.63C3.42333 87.63 3.81333 87.7133 4.14 87.88C4.47333 88.04 4.72333 88.26 4.89 88.54C5.06333 88.82 5.15 89.1367 5.15 89.49C5.15 89.9033 5.03 90.26 4.79 90.56C4.55667 90.86 4.25 91.0533 3.87 91.14V91.19C4.30333 91.2967 4.64667 91.5067 4.9 91.82C5.15333 92.1333 5.28 92.5433 5.28 93.05C5.28 93.43 5.19333 93.7733 5.02 94.08C4.84667 94.38 4.58667 94.6167 4.24 94.79C3.89333 94.9633 3.47667 95.05 2.99 95.05C2.28333 95.05 1.70333 94.8667 1.25 94.5C0.796667 94.1267 0.543333 93.6 0.49 92.92H1.37C1.41667 93.32 1.58 93.6467 1.86 93.9C2.14 94.1533 2.51333 94.28 2.98 94.28C3.44667 94.28 3.8 94.16 4.04 93.92C4.28667 93.6733 4.41 93.3567 4.41 92.97C4.41 92.47 4.24333 92.11 3.91 91.89C3.57667 91.67 3.07333 91.56 2.4 91.56H2.17V90.8H2.41C3.02333 90.7933 3.48667 90.6933 3.8 90.5C4.11333 90.3 4.27 89.9933 4.27 89.58C4.27 89.2267 4.15333 88.9433 3.92 88.73C3.69333 88.5167 3.36667 88.41 2.94 88.41C2.52667 88.41 2.19333 88.5167 1.94 88.73C1.68667 88.9433 1.53667 89.23 1.49 89.59H0.6ZM6.50867 91.31C6.50867 90.1633 6.69534 89.27 7.06867 88.63C7.44201 87.9833 8.09534 87.66 9.02867 87.66C9.95534 87.66 10.6053 87.9833 10.9787 88.63C11.352 89.27 11.5387 90.1633 11.5387 91.31C11.5387 92.4767 11.352 93.3833 10.9787 94.03C10.6053 94.6767 9.95534 95 9.02867 95C8.09534 95 7.44201 94.6767 7.06867 94.03C6.69534 93.3833 6.50867 92.4767 6.50867 91.31ZM10.6387 91.31C10.6387 90.73 10.5987 90.24 10.5187 89.84C10.4453 89.4333 10.2887 89.1067 10.0487 88.86C9.81534 88.6133 9.47534 88.49 9.02867 88.49C8.57534 88.49 8.22867 88.6133 7.98867 88.86C7.75534 89.1067 7.59867 89.4333 7.51867 89.84C7.44534 90.24 7.40867 90.73 7.40867 91.31C7.40867 91.91 7.44534 92.4133 7.51867 92.82C7.59867 93.2267 7.75534 93.5533 7.98867 93.8C8.22867 94.0467 8.57534 94.17 9.02867 94.17C9.47534 94.17 9.81534 94.0467 10.0487 93.8C10.2887 93.5533 10.4453 93.2267 10.5187 92.82C10.5987 92.4133 10.6387 91.91 10.6387 91.31ZM12.588 89.4C12.588 88.9467 12.7246 88.5867 12.998 88.32C13.2713 88.0467 13.6213 87.91 14.048 87.91C14.4746 87.91 14.8246 88.0467 15.098 88.32C15.3713 88.5867 15.508 88.9467 15.508 89.4C15.508 89.86 15.3713 90.2267 15.098 90.5C14.8246 90.7667 14.4746 90.9 14.048 90.9C13.6213 90.9 13.2713 90.7667 12.998 90.5C12.7246 90.2267 12.588 89.86 12.588 89.4ZM18.428 88.02L14.378 95H13.478L17.528 88.02H18.428ZM14.048 88.47C13.8213 88.47 13.6413 88.55 13.508 88.71C13.3813 88.8633 13.318 89.0933 13.318 89.4C13.318 89.7067 13.3813 89.94 13.508 90.1C13.6413 90.26 13.8213 90.34 14.048 90.34C14.2746 90.34 14.4546 90.26 14.588 90.1C14.7213 89.9333 14.788 89.7 14.788 89.4C14.788 89.0933 14.7213 88.8633 14.588 88.71C14.4546 88.55 14.2746 88.47 14.048 88.47ZM16.418 93.62C16.418 93.16 16.5546 92.7967 16.828 92.53C17.1013 92.2567 17.4513 92.12 17.878 92.12C18.3046 92.12 18.6513 92.2567 18.918 92.53C19.1913 92.7967 19.328 93.16 19.328 93.62C19.328 94.0733 19.1913 94.4367 18.918 94.71C18.6513 94.9833 18.3046 95.12 17.878 95.12C17.4513 95.12 17.1013 94.9867 16.828 94.72C16.5546 94.4467 16.418 94.08 16.418 93.62ZM17.868 92.69C17.6413 92.69 17.4613 92.77 17.328 92.93C17.1946 93.0833 17.128 93.3133 17.128 93.62C17.128 93.92 17.1946 94.15 17.328 94.31C17.4613 94.4633 17.6413 94.54 17.868 94.54C18.0946 94.54 18.2746 94.4633 18.408 94.31C18.5413 94.15 18.608 93.92 18.608 93.62C18.608 93.3133 18.5413 93.0833 18.408 92.93C18.2746 92.77 18.0946 92.69 17.868 92.69Z" fill="#29292A"/>
<path d="M0.51 122.27C1.35667 121.59 2.02 121.033 2.5 120.6C2.98 120.16 3.38333 119.703 3.71 119.23C4.04333 118.75 4.21 118.28 4.21 117.82C4.21 117.387 4.10333 117.047 3.89 116.8C3.68333 116.547 3.34667 116.42 2.88 116.42C2.42667 116.42 2.07333 116.563 1.82 116.85C1.57333 117.13 1.44 117.507 1.42 117.98H0.54C0.566667 117.233 0.793333 116.657 1.22 116.25C1.64667 115.843 2.19667 115.64 2.87 115.64C3.55667 115.64 4.1 115.83 4.5 116.21C4.90667 116.59 5.11 117.113 5.11 117.78C5.11 118.333 4.94333 118.873 4.61 119.4C4.28333 119.92 3.91 120.38 3.49 120.78C3.07 121.173 2.53333 121.633 1.88 122.16H5.32V122.92H0.51V122.27ZM6.37195 119.31C6.37195 118.163 6.55862 117.27 6.93195 116.63C7.30529 115.983 7.95862 115.66 8.89195 115.66C9.81862 115.66 10.4686 115.983 10.842 116.63C11.2153 117.27 11.402 118.163 11.402 119.31C11.402 120.477 11.2153 121.383 10.842 122.03C10.4686 122.677 9.81862 123 8.89195 123C7.95862 123 7.30529 122.677 6.93195 122.03C6.55862 121.383 6.37195 120.477 6.37195 119.31ZM10.502 119.31C10.502 118.73 10.462 118.24 10.382 117.84C10.3086 117.433 10.152 117.107 9.91195 116.86C9.67862 116.613 9.33862 116.49 8.89195 116.49C8.43862 116.49 8.09195 116.613 7.85195 116.86C7.61862 117.107 7.46195 117.433 7.38195 117.84C7.30862 118.24 7.27195 118.73 7.27195 119.31C7.27195 119.91 7.30862 120.413 7.38195 120.82C7.46195 121.227 7.61862 121.553 7.85195 121.8C8.09195 122.047 8.43862 122.17 8.89195 122.17C9.33862 122.17 9.67862 122.047 9.91195 121.8C10.152 121.553 10.3086 121.227 10.382 120.82C10.462 120.413 10.502 119.91 10.502 119.31ZM12.4513 117.4C12.4513 116.947 12.5879 116.587 12.8613 116.32C13.1346 116.047 13.4846 115.91 13.9113 115.91C14.3379 115.91 14.6879 116.047 14.9613 116.32C15.2346 116.587 15.3713 116.947 15.3713 117.4C15.3713 117.86 15.2346 118.227 14.9613 118.5C14.6879 118.767 14.3379 118.9 13.9113 118.9C13.4846 118.9 13.1346 118.767 12.8613 118.5C12.5879 118.227 12.4513 117.86 12.4513 117.4ZM18.2913 116.02L14.2413 123H13.3413L17.3913 116.02H18.2913ZM13.9113 116.47C13.6846 116.47 13.5046 116.55 13.3713 116.71C13.2446 116.863 13.1813 117.093 13.1813 117.4C13.1813 117.707 13.2446 117.94 13.3713 118.1C13.5046 118.26 13.6846 118.34 13.9113 118.34C14.1379 118.34 14.3179 118.26 14.4513 118.1C14.5846 117.933 14.6513 117.7 14.6513 117.4C14.6513 117.093 14.5846 116.863 14.4513 116.71C14.3179 116.55 14.1379 116.47 13.9113 116.47ZM16.2813 121.62C16.2813 121.16 16.4179 120.797 16.6913 120.53C16.9646 120.257 17.3146 120.12 17.7413 120.12C18.1679 120.12 18.5146 120.257 18.7813 120.53C19.0546 120.797 19.1913 121.16 19.1913 121.62C19.1913 122.073 19.0546 122.437 18.7813 122.71C18.5146 122.983 18.1679 123.12 17.7413 123.12C17.3146 123.12 16.9646 122.987 16.6913 122.72C16.4179 122.447 16.2813 122.08 16.2813 121.62ZM17.7313 120.69C17.5046 120.69 17.3246 120.77 17.1913 120.93C17.0579 121.083 16.9913 121.313 16.9913 121.62C16.9913 121.92 17.0579 122.15 17.1913 122.31C17.3246 122.463 17.5046 122.54 17.7313 122.54C17.9579 122.54 18.1379 122.463 18.2713 122.31C18.4046 122.15 18.4713 121.92 18.4713 121.62C18.4713 121.313 18.4046 121.083 18.2713 120.93C18.1379 120.77 17.9579 120.69 17.7313 120.69Z" fill="#29292A"/>
<path d="M0.38 144.6V143.77H2.26V151H1.34V144.6H0.38ZM3.82313 147.31C3.82313 146.163 4.00979 145.27 4.38313 144.63C4.75646 143.983 5.40979 143.66 6.34313 143.66C7.26979 143.66 7.91979 143.983 8.29313 144.63C8.66646 145.27 8.85312 146.163 8.85312 147.31C8.85312 148.477 8.66646 149.383 8.29313 150.03C7.91979 150.677 7.26979 151 6.34313 151C5.40979 151 4.75646 150.677 4.38313 150.03C4.00979 149.383 3.82313 148.477 3.82313 147.31ZM7.95313 147.31C7.95313 146.73 7.91313 146.24 7.83313 145.84C7.75979 145.433 7.60313 145.107 7.36313 144.86C7.12979 144.613 6.78979 144.49 6.34313 144.49C5.88979 144.49 5.54313 144.613 5.30313 144.86C5.06979 145.107 4.91313 145.433 4.83313 145.84C4.75979 146.24 4.72313 146.73 4.72313 147.31C4.72313 147.91 4.75979 148.413 4.83313 148.82C4.91313 149.227 5.06979 149.553 5.30313 149.8C5.54313 150.047 5.88979 150.17 6.34313 150.17C6.78979 150.17 7.12979 150.047 7.36313 149.8C7.60313 149.553 7.75979 149.227 7.83313 148.82C7.91313 148.413 7.95313 147.91 7.95313 147.31ZM9.90242 145.4C9.90242 144.947 10.0391 144.587 10.3124 144.32C10.5858 144.047 10.9358 143.91 11.3624 143.91C11.7891 143.91 12.1391 144.047 12.4124 144.32C12.6858 144.587 12.8224 144.947 12.8224 145.4C12.8224 145.86 12.6858 146.227 12.4124 146.5C12.1391 146.767 11.7891 146.9 11.3624 146.9C10.9358 146.9 10.5858 146.767 10.3124 146.5C10.0391 146.227 9.90242 145.86 9.90242 145.4ZM15.7424 144.02L11.6924 151H10.7924L14.8424 144.02H15.7424ZM11.3624 144.47C11.1358 144.47 10.9558 144.55 10.8224 144.71C10.6958 144.863 10.6324 145.093 10.6324 145.4C10.6324 145.707 10.6958 145.94 10.8224 146.1C10.9558 146.26 11.1358 146.34 11.3624 146.34C11.5891 146.34 11.7691 146.26 11.9024 146.1C12.0358 145.933 12.1024 145.7 12.1024 145.4C12.1024 145.093 12.0358 144.863 11.9024 144.71C11.7691 144.55 11.5891 144.47 11.3624 144.47ZM13.7324 149.62C13.7324 149.16 13.8691 148.797 14.1424 148.53C14.4158 148.257 14.7658 148.12 15.1924 148.12C15.6191 148.12 15.9658 148.257 16.2324 148.53C16.5058 148.797 16.6424 149.16 16.6424 149.62C16.6424 150.073 16.5058 150.437 16.2324 150.71C15.9658 150.983 15.6191 151.12 15.1924 151.12C14.7658 151.12 14.4158 150.987 14.1424 150.72C13.8691 150.447 13.7324 150.08 13.7324 149.62ZM15.1824 148.69C14.9558 148.69 14.7758 148.77 14.6424 148.93C14.5091 149.083 14.4424 149.313 14.4424 149.62C14.4424 149.92 14.5091 150.15 14.6424 150.31C14.7758 150.463 14.9558 150.54 15.1824 150.54C15.4091 150.54 15.5891 150.463 15.7224 150.31C15.8558 150.15 15.9224 149.92 15.9224 149.62C15.9224 149.313 15.8558 149.083 15.7224 148.93C15.5891 148.77 15.4091 148.69 15.1824 148.69Z" fill="#29292A"/>
</svg>
