<svg width="216" height="221" viewBox="0 0 216 221" fill="none" xmlns="http://www.w3.org/2000/svg">
<path d="M159.733 61.4841C166.689 55.2849 177.516 55.8406 182.31 63.8303C188.776 74.6065 192.947 86.6734 194.479 99.2725C196.694 117.486 193.29 135.942 184.722 152.166C176.153 168.391 162.831 181.609 146.54 190.049C135.271 195.888 122.954 199.248 110.408 199.984C101.106 200.529 94.5421 191.901 95.7395 182.661C96.937 173.42 105.53 167.161 114.712 165.575C120.364 164.599 125.866 162.759 131.018 160.09C141.201 154.813 149.529 146.551 154.884 136.409C160.24 126.268 162.368 114.731 160.984 103.346C160.283 97.5866 158.701 92.0051 156.32 86.7869C152.452 78.3098 152.776 67.6833 159.733 61.4841Z" fill="#8F9792"/>
<path d="M170.438 143.057C178.758 147.252 182.216 157.527 176.545 164.919C168.895 174.89 159.202 183.2 148.046 189.251C131.917 197.999 113.5 201.608 95.2633 199.595C77.0261 197.582 59.8399 190.043 46.0075 177.988C36.4392 169.65 28.7919 159.426 23.5012 148.026C19.5786 139.575 25.1945 130.301 34.2292 128.023C43.264 125.744 52.2412 131.439 57.0872 139.397C60.0703 144.296 63.8021 148.738 68.1762 152.55C76.8226 160.085 87.5655 164.798 98.9653 166.056C110.365 167.314 121.877 165.058 131.959 159.591C137.059 156.824 141.67 153.303 145.649 149.173C152.115 142.463 162.118 138.863 170.438 143.057Z" fill="#BCFFDB"/>
<path d="M32.1717 112.642C22.8406 112.951 14.8636 105.577 16.303 96.3523C17.249 90.289 18.815 84.3237 20.9852 78.552C25.1448 67.4892 31.4427 57.354 39.5193 48.7251C47.5958 40.0962 57.2929 33.1427 68.0567 28.2614C78.8206 23.3801 90.4405 20.6668 102.253 20.2762C114.066 19.8857 125.839 21.8256 136.902 25.9852C147.965 30.1449 158.1 36.4427 166.729 44.5193C175.358 52.5959 182.311 62.2929 187.193 73.0568C189.739 78.6726 191.696 84.5214 193.04 90.509C195.086 99.6184 187.613 107.503 178.282 107.812C168.951 108.12 161.374 100.632 158.314 91.8118C157.751 90.189 157.113 88.59 156.401 87.0202C153.354 80.2999 149.012 74.2457 143.625 69.2032C138.238 64.1607 131.91 60.2286 125.003 57.6316C118.096 55.0346 110.745 53.8234 103.37 54.0673C95.9953 54.3111 88.7405 56.0052 82.0202 59.0527C75.2999 62.1003 69.2456 66.4417 64.2031 71.829C59.1606 77.2164 55.2286 83.5441 52.6316 90.4511C52.025 92.0645 51.4939 93.7021 51.0394 95.3586C48.569 104.362 41.5028 112.334 32.1717 112.642Z" fill="#F3C9C4"/>
<path d="M53.5147 161.761C46.878 168.398 35.9559 168.465 30.683 160.701C21.8871 147.748 16.5648 132.637 15.3865 116.828C14.2081 101.02 17.2311 85.2863 24.0095 71.1729C28.0729 62.7123 38.8843 61.1599 46.4317 66.7393C53.979 72.3188 55.2758 82.9503 52.2063 91.82C49.7281 98.9812 48.7092 106.627 49.2812 114.302C49.8533 121.976 51.9946 129.387 55.5071 136.101C59.8577 144.418 60.1514 155.124 53.5147 161.761Z" fill="#FFF3CA"/>
</svg>
